<svg width="50" height="50" viewBox="0 0 50 50" fill="none" xmlns="http://www.w3.org/2000/svg">
<path d="M38.4502 10.24C40.0813 10.24 41.6456 10.8879 42.7989 12.0413C43.9523 13.1946 44.6002 14.7589 44.6002 16.39V36.07C44.6002 37.7011 43.9523 39.2653 42.7989 40.4187C41.6456 41.572 40.0813 42.22 38.4502 42.22H11.3902C9.75915 42.22 8.19488 41.572 7.04153 40.4187C5.88818 39.2653 5.24023 37.7011 5.24023 36.07V16.39C5.24023 14.7589 5.88818 13.1946 7.04153 12.0413C8.19488 10.8879 9.75915 10.24 11.3902 10.24H38.4502ZM42.1402 19.9841L25.5451 29.7502C25.3882 29.8424 25.2128 29.8985 25.0316 29.9147C24.8504 29.9309 24.6678 29.9066 24.4971 29.8437L24.2954 29.7502L7.70023 19.989V36.07C7.70023 37.0486 8.089 37.9872 8.78101 38.6792C9.47302 39.3712 10.4116 39.76 11.3902 39.76H38.4502C39.4289 39.76 40.3674 39.3712 41.0595 38.6792C41.7515 37.9872 42.1402 37.0486 42.1402 36.07V19.9841ZM38.4502 12.7H11.3902C10.4116 12.7 9.47302 13.0888 8.78101 13.7808C8.089 14.4728 7.70023 15.4113 7.70023 16.39V17.1329L24.9202 27.2632L42.1402 17.128V16.39C42.1402 15.4113 41.7515 14.4728 41.0595 13.7808C40.3674 13.0888 39.4289 12.7 38.4502 12.7Z" fill="#F925A2"/>
</svg>
