<svg width="50" height="50" viewBox="0 0 50 50" fill="none" xmlns="http://www.w3.org/2000/svg">
<g clip-path="url(#clip0_20_110)">
<path d="M34.225 3.4749C35.0405 3.4749 35.8227 3.79887 36.3994 4.37555C36.976 4.95222 37.3 5.73436 37.3 6.5499V43.4499C37.3 44.2654 36.976 45.0476 36.3994 45.6243C35.8227 46.2009 35.0405 46.5249 34.225 46.5249H15.775C14.9595 46.5249 14.1773 46.2009 13.6006 45.6243C13.024 45.0476 12.7 44.2654 12.7 43.4499V6.5499C12.7 5.73436 13.024 4.95222 13.6006 4.37555C14.1773 3.79887 14.9595 3.4749 15.775 3.4749H34.225ZM15.775 0.399902C14.1439 0.399902 12.5796 1.04785 11.4263 2.2012C10.2729 3.35454 9.625 4.91882 9.625 6.5499V43.4499C9.625 45.081 10.2729 46.6453 11.4263 47.7986C12.5796 48.952 14.1439 49.5999 15.775 49.5999H34.225C35.8561 49.5999 37.4204 48.952 38.5737 47.7986C39.7271 46.6453 40.375 45.081 40.375 43.4499V6.5499C40.375 4.91882 39.7271 3.35454 38.5737 2.2012C37.4204 1.04785 35.8561 0.399902 34.225 0.399902L15.775 0.399902Z" fill="#FFC700"/>
<path d="M24.9998 43.45C25.8153 43.45 26.5975 43.1261 27.1742 42.5494C27.7508 41.9727 28.0748 41.1906 28.0748 40.375C28.0748 39.5595 27.7508 38.7774 27.1742 38.2007C26.5975 37.624 25.8153 37.3 24.9998 37.3C24.1843 37.3 23.4021 37.624 22.8255 38.2007C22.2488 38.7774 21.9248 39.5595 21.9248 40.375C21.9248 41.1906 22.2488 41.9727 22.8255 42.5494C23.4021 43.1261 24.1843 43.45 24.9998 43.45Z" fill="#FFC700"/>
</g>
<defs>
<clipPath id="clip0_20_110">
<rect width="49.2" height="49.2" fill="white" transform="translate(0.399902 0.399902)"/>
</clipPath>
</defs>
</svg>
