<svg width="60" height="60" viewBox="0 0 60 60" fill="none" xmlns="http://www.w3.org/2000/svg">
<path d="M47.3934 12.5586C45.1268 10.2805 42.4269 8.47423 39.4513 7.24517C36.4757 6.01612 33.2839 5.38888 30.0622 5.40005C16.5631 5.40005 5.56107 16.347 5.56107 29.7786C5.56107 34.0836 6.69836 38.2657 8.82459 41.9557L5.36328 54.6L18.3432 51.2052C21.9281 53.1487 25.9581 54.1818 30.0622 54.1818C43.5613 54.1818 54.5633 43.2348 54.5633 29.8032C54.5633 23.2842 52.0167 17.1588 47.3934 12.5586ZM30.0622 50.049C26.4031 50.049 22.8182 49.065 19.6783 47.22L18.9365 46.7772L11.2228 48.7944L13.2748 41.316L12.7804 40.5535C10.7475 37.3234 9.66801 33.5898 9.66519 29.7786C9.66519 18.6102 18.8129 9.50825 30.0374 9.50825C35.4766 9.50825 40.5944 11.6238 44.4266 15.4614C46.3241 17.3408 47.8278 19.5762 48.8506 22.0381C49.8734 24.5 50.395 27.1393 50.385 29.8032C50.4344 40.9716 41.2867 50.049 30.0622 50.049ZM41.2372 34.8954C40.6192 34.6002 37.6029 33.1242 37.059 32.9028C36.4903 32.706 36.0947 32.6076 35.6744 33.198C35.2541 33.813 34.0921 35.1906 33.746 35.5842C33.3999 36.0024 33.029 36.0516 32.4109 35.7318C31.7928 35.4366 29.8149 34.7724 27.4909 32.706C25.6614 31.0824 24.4499 29.0898 24.0791 28.4748C23.7329 27.8598 24.0296 27.54 24.351 27.2202C24.623 26.9496 24.9691 26.5068 25.2658 26.1624C25.5625 25.818 25.6861 25.5474 25.8839 25.1538C26.0817 24.7356 25.9828 24.3913 25.8344 24.0961C25.6861 23.8008 24.4499 20.7997 23.9554 19.5696C23.461 18.3889 22.9418 18.5364 22.5709 18.5118H21.3842C20.9639 18.5118 20.3211 18.6594 19.7524 19.2744C19.2085 19.8894 17.6262 21.3654 17.6262 24.3666C17.6262 27.3678 19.8266 30.2706 20.1233 30.6642C20.42 31.0824 24.4499 37.2324 30.5814 39.8647C32.0401 40.5042 33.1773 40.8732 34.0674 41.1438C35.5261 41.6113 36.8612 41.5374 37.9243 41.3898C39.111 41.2176 41.5587 39.9138 42.0531 38.487C42.5723 37.0602 42.5723 35.8548 42.3993 35.5842C42.2262 35.3137 41.8553 35.1906 41.2372 34.8954Z" fill="#9B3EF8"/>
</svg>
